<svg xmlns="http://www.w3.org/2000/svg" version="1.1" xmlns:xlink="http://www.w3.org/1999/xlink" xmlns:svgjs="http://svgjs.dev/svgjs" viewBox="0 0 6.126559478466522 2.1071070827277762"><g transform="matrix(1,0,0,1,0.29083334467476174,0.6829595413638881)"><g><path d=" M 0.062708 0.7350199999999999 L 0.062708 0.005139999999999811 L 0.263168 0.005139999999999811 L 0.263168 0.5602599999999999 L 0.594184 0.5602599999999999 L 0.594184 0.7350199999999999 L 0.062708 0.7350199999999999 M 1.187362587890625 0.5602599999999999 L 1.187362587890625 0.7350199999999999 L 0.667194587890625 0.7350199999999999 L 0.667194587890625 0.005139999999999811 L 1.178110587890625 0.005139999999999811 L 1.178110587890625 0.17989999999999984 L 0.867654587890625 0.17989999999999984 L 0.867654587890625 0.2826999999999999 L 1.132878587890625 0.2826999999999999 L 1.132878587890625 0.4451239999999999 L 0.867654587890625 0.4451239999999999 L 0.867654587890625 0.5602599999999999 L 1.187362587890625 0.5602599999999999" fill="#0c1e00" fill-rule="nonzero"></path></g><g><path d=" M 2.7887916602107485 0.7350199999999999 L 2.7887916602107485 0.005139999999999811 L 3.289427660210748 0.005139999999999811 L 3.289427660210748 0.17989999999999984 L 2.989251660210748 0.17989999999999984 L 2.989251660210748 0.30120399999999986 L 3.2339156602107484 0.30120399999999986 L 3.2339156602107484 0.4636279999999999 L 2.989251660210748 0.4636279999999999 L 2.989251660210748 0.7350199999999999 L 2.7887916602107485 0.7350199999999999 M 3.3706276133357487 0.7350199999999999 L 3.3706276133357487 0.005139999999999811 L 3.7057556133357483 0.005139999999999811 Q 3.7592116133357485 0.005139999999999811 3.8044436133357484 0.026727999999999863 Q 3.8496756133357484 0.048315999999999915 3.8825716133357484 0.08480999999999983 Q 3.9154676133357484 0.12130399999999986 3.9334576133357486 0.1665359999999999 Q 3.9514476133357483 0.21176799999999985 3.9514476133357483 0.25802799999999987 Q 3.9514476133357483 0.3001759999999999 3.9391116133357484 0.3392399999999999 Q 3.9267756133357485 0.37830399999999986 3.9031316133357485 0.4106859999999999 Q 3.8794876133357485 0.4430679999999999 3.8465916133357485 0.4667119999999999 L 4.000791613335749 0.7350199999999999 L 3.7807996133357484 0.7350199999999999 L 3.6522996133357486 0.5109159999999999 L 3.5710876133357483 0.5109159999999999 L 3.5710876133357483 0.7350199999999999 L 3.3706276133357487 0.7350199999999999 M 3.5710876133357483 0.3361559999999999 L 3.6975316133357485 0.3361559999999999 Q 3.7098676133357484 0.3361559999999999 3.7211756133357485 0.32690399999999986 Q 3.7324836133357486 0.3176519999999999 3.7401936133357485 0.3001759999999999 Q 3.7479036133357484 0.2826999999999999 3.7479036133357484 0.25802799999999987 Q 3.7479036133357484 0.23232799999999987 3.7391656133357483 0.21536599999999984 Q 3.7304276133357486 0.1984039999999999 3.7175776133357483 0.18915199999999988 Q 3.7047276133357485 0.17989999999999984 3.6923916133357486 0.17989999999999984 L 3.5710876133357483 0.17989999999999984 L 3.5710876133357483 0.3361559999999999 M 4.3873356758357485 0.7411879999999998 Q 4.304067675835748 0.7411879999999998 4.236219675835748 0.7098339999999999 Q 4.168371675835749 0.6784799999999999 4.119541675835748 0.6255379999999999 Q 4.0707116758357484 0.5725959999999999 4.044497675835748 0.5062899999999999 Q 4.0182836758357485 0.4399839999999999 4.0182836758357485 0.3690519999999999 Q 4.0182836758357485 0.2960639999999999 4.046039675835749 0.23027199999999992 Q 4.073795675835749 0.16447999999999985 4.123653675835748 0.11256599999999983 Q 4.173511675835749 0.06065199999999982 4.241873675835748 0.030839999999999868 Q 4.310235675835749 0.0010279999999998068 4.391447675835749 0.0010279999999998068 Q 4.474715675835748 0.0010279999999998068 4.542563675835749 0.03238199999999991 Q 4.610411675835748 0.0637359999999999 4.658727675835748 0.11719199999999985 Q 4.707043675835749 0.1706479999999999 4.733257675835748 0.2369539999999999 Q 4.759471675835749 0.30325999999999986 4.759471675835749 0.3731639999999999 Q 4.759471675835749 0.4451239999999999 4.7322296758357485 0.5109159999999999 Q 4.704987675835748 0.5767079999999999 4.655129675835749 0.6286219999999999 Q 4.605271675835748 0.6805359999999999 4.537423675835749 0.7108619999999999 Q 4.469575675835748 0.7411879999999998 4.3873356758357485 0.7411879999999998 M 4.2218276758357485 0.3711079999999999 Q 4.2218276758357485 0.40811599999999987 4.232107675835748 0.4425539999999999 Q 4.242387675835748 0.47699199999999986 4.262947675835749 0.5042339999999998 Q 4.283507675835748 0.5314759999999998 4.314861675835749 0.54741 Q 4.346215675835748 0.5633439999999998 4.389391675835748 0.5633439999999998 Q 4.432567675835748 0.5633439999999998 4.464435675835748 0.5468959999999998 Q 4.496303675835748 0.5304479999999999 4.516349675835748 0.5021779999999999 Q 4.536395675835748 0.4739079999999999 4.546161675835748 0.43946999999999986 Q 4.555927675835749 0.4050319999999999 4.555927675835749 0.3690519999999999 Q 4.555927675835749 0.3320439999999999 4.545647675835748 0.2981199999999999 Q 4.535367675835748 0.2641959999999999 4.5148076758357485 0.2369539999999999 Q 4.494247675835748 0.2097119999999999 4.462379675835749 0.1942919999999999 Q 4.430511675835748 0.17887199999999992 4.388363675835748 0.17887199999999992 Q 4.345187675835748 0.17887199999999992 4.313833675835748 0.19531999999999983 Q 4.282479675835749 0.21176799999999985 4.261919675835748 0.2390099999999999 Q 4.241359675835748 0.2662519999999999 4.231593675835748 0.3006899999999999 Q 4.2218276758357485 0.33512799999999987 4.2218276758357485 0.3711079999999999 M 5.163490734429498 0.7401599999999999 Q 5.092558734429498 0.7401599999999999 5.028308734429498 0.7149739999999999 Q 4.964058734429498 0.6897879999999998 4.914714734429498 0.6409579999999999 Q 4.865370734429498 0.5921279999999999 4.837100734429498 0.5227379999999999 Q 4.808830734429498 0.45334799999999986 4.808830734429498 0.3639119999999999 Q 4.808830734429498 0.2868119999999999 4.837614734429498 0.22101999999999988 Q 4.866398734429498 0.15522799999999992 4.917284734429498 0.10536999999999985 Q 4.968170734429498 0.055511999999999895 5.036018734429498 0.027755999999999892 Q 5.103866734429498 -1.1102230246251565e-16 5.183022734429498 -1.1102230246251565e-16 Q 5.281710734429498 -1.1102230246251565e-16 5.361894734429498 0.04266199999999987 Q 5.442078734429498 0.08532399999999984 5.481142734429498 0.15933999999999982 L 5.332082734429498 0.27344799999999986 Q 5.310494734429498 0.23027199999999992 5.267318734429498 0.20405799999999985 Q 5.224142734429498 0.1778439999999999 5.175826734429498 0.1778439999999999 Q 5.139846734429498 0.1778439999999999 5.110034734429498 0.19223599999999985 Q 5.080222734429498 0.20662799999999992 5.058120734429498 0.23232799999999987 Q 5.036018734429498 0.25802799999999987 5.024196734429498 0.29349399999999987 Q 5.012374734429498 0.32895999999999986 5.012374734429498 0.3711079999999999 Q 5.012374734429498 0.4142839999999999 5.024710734429498 0.44923599999999986 Q 5.037046734429498 0.4841879999999999 5.059148734429498 0.5093739999999999 Q 5.081250734429498 0.5345599999999999 5.112090734429498 0.5484379999999999 Q 5.142930734429498 0.5623159999999999 5.180966734429498 0.5623159999999999 Q 5.229282734429498 0.5623159999999999 5.273486734429498 0.5381579999999999 Q 5.317690734429498 0.5139999999999999 5.353670734429498 0.4697959999999999 L 5.353670734429498 0.6651159999999999 Q 5.271430734429498 0.7401599999999999 5.163490734429498 0.7401599999999999 M 5.343390734429498 0.4903559999999999 L 5.208722734429498 0.4903559999999999 L 5.208722734429498 0.34643599999999986 L 5.508898734429498 0.34643599999999986 L 5.508898734429498 0.7350199999999999 L 5.343390734429498 0.7350199999999999 L 5.343390734429498 0.4903559999999999" fill="#0c1e00" fill-rule="nonzero"></path></g><g></g><g clip-path="url(#SvgjsClipPath1001)"><g clip-path="url(#SvgjsClipPath1000534de2d6-5c15-4c3b-a9e6-a0e659e5a817)"><path d=" M 1.1218884095318964 0.7157009635384171 C 1.1248044961598227 0.6728904685565622 1.1310207076099779 0.6308024861097514 1.1425418534390617 0.5893621612957056 C 1.1486539189382197 0.5673678382694493 1.1569009764328235 0.5462620103876391 1.1650861972690227 0.5249836907744898 C 1.1848706733975538 0.4735388455427595 1.208394640079084 0.4237473172831123 1.236699556823587 0.37635765501834184 C 1.271809760553574 0.3175737748022658 1.3113917310545107 0.26068404906995424 1.3558262519597308 0.2085264549860858 C 1.3708948692446623 0.1908379161213768 1.3873336566974028 0.17426894622988953 1.4039612086863262 0.15806774172786164 C 1.4139657291040106 0.14831707706573327 1.4232705189134316 0.1378080996979052 1.4333368759895209 0.12808672608449478 C 1.4552433258696231 0.10694184347106078 1.4781261440403257 0.08663663758754298 1.5014385642588925 0.06705719880003802 C 1.54351027390086 0.03172568492418143 1.5888463081944009 0.00008158862582541282 1.635337711631819 -0.029128096067967235 C 1.6528179585945333 -0.04011223933722069 1.6702461325817488 -0.05137627484977958 1.6882926731530112 -0.061413340877150835 C 1.7407692142118094 -0.0906002436441628 1.795305892363774 -0.11784742807384885 1.8513136320735764 -0.1395651134177684 C 1.8858607967559842 -0.1529608863648047 1.9210263280224387 -0.16504181668049914 1.956107240703708 -0.176973037191635 C 1.9699228520157024 -0.1816726232303911 1.9843568299117436 -0.18569200602669575 1.9978567488097771 -0.1911889595027755 C 2.0047303815756035 -0.2057010468620648 2.0095471318092315 -0.22116346602420503 2.0165607106967105 -0.23564626233477634 C 2.0280753474038566 -0.2594273393328312 2.0448949184899314 -0.2816169360172076 2.062781985573729 -0.3009262462443131 C 2.1407612663830076 -0.38511197482084053 2.2657689531895335 -0.413853002735145 2.3733419568869074 -0.3752181094760907 C 2.405243163501788 -0.36375880030541174 2.436119183411539 -0.3454291129298752 2.462461599891935 -0.32418659348738116 C 2.4720625547495048 -0.3164439929429207 2.480680632194537 -0.3078584611075753 2.489591620126749 -0.2993608024183839 C 2.4926281255105156 -0.2964642431562697 2.496761417940724 -0.2905376876323258 2.5008100917857465 -0.2893335000739187 C 2.5205717859874968 -0.2887411699776212 2.5405417720912418 -0.2896784835365975 2.56033275734171 -0.2896882472195035 C 2.6073383814121778 -0.28971102914628416 2.6543472600436138 -0.2897989022924382 2.7013528841140815 -0.28968499265853487 C 2.734900898579108 -0.2896036286343181 2.7719280387196408 -0.29320968218760196 2.798879058101178 -0.26951973289666975 C 2.8133423270459375 -0.2568074177530537 2.8232231741468126 -0.23646315713791188 2.8254297664835697 -0.2174467573979865 C 2.8269203554072186 -0.20461402349852975 2.8254981122639107 -0.19158276137998428 2.824756072363055 -0.1787532820414962 C 2.8231548283664702 -0.150988622417792 2.819890503714897 -0.12377398359779274 2.813814238386394 -0.09659839950941745 C 2.804535485064722 -0.05511901996374752 2.7887508643666843 -0.015810432584179024 2.7698223377729128 0.022144257432423764 C 2.7299800023944827 0.10203071096934113 2.673445023807756 0.17501749525268306 2.6042074937603195 0.23156223752231575 C 2.582613481733209 0.24919870341152606 2.560615904145984 0.26780828303036797 2.5365516803436554 0.2820242053415085 C 2.533811340008037 0.30458156741534437 2.535643657833397 0.3282357165356211 2.535594839418867 0.3509427884140156 C 2.5355004571507758 0.393613337274218 2.5355069662727128 0.43628388613442026 2.5355297481994934 0.47895443499462254 C 2.5355915848578983 0.5872434421051029 2.5352466013952193 0.6955487220204266 2.5359235500767023 0.8038312200089699 C 2.5362066968809764 0.8492095635951036 2.536984536952488 0.8946074345470494 2.5369357185379577 0.9400085600599639 C 2.5369161911721463 0.9564148019030176 2.5377103040485007 0.9730358447700036 2.5370301008060494 0.9894160501253084 C 2.53771355860947 0.9907634383663368 2.538966564582407 0.9900734714409793 2.540274898091811 0.9900246530264489 C 2.543542477304354 0.9899009797096399 2.546810056516896 0.989712215173457 2.550077635729438 0.9896568876369896 C 2.5636035911152213 0.9894258138082141 2.577162092110691 0.9895657599298668 2.590694556618411 0.9894843959056503 C 2.6026290316905154 0.9894160501253084 2.614566761323589 0.9894258138082141 2.626501236395693 0.9894258138082141 C 2.6385854212723565 0.9894258138082141 2.6506598424661134 0.9893900136375589 2.662376261953317 0.992768247923036 C 2.6966956073679187 1.0026653678287543 2.7211861786571427 1.0410822055029083 2.712916339235758 1.0763681555252034 C 2.711259767702706 1.0834338073881808 2.7083241537089675 1.0900893845691064 2.704555372107251 1.096273050409575 C 2.7013366113092383 1.1015584574226913 2.697613393561083 1.1064435534366617 2.693079790131728 1.1106777372568981 C 2.6835634538593442 1.1195594341403923 2.671290504446498 1.1267064500275867 2.6586335168393496 1.129931719947536 C 2.6370948323487067 1.1354156551797414 2.6127572254250095 1.1325841871370004 2.5907043203013176 1.1325776780150631 C 2.469198541097077 1.1325418778444076 2.347692761892837 1.1323889134788805 2.2261902372495657 1.1325614052102198 C 2.041041518303029 1.1328217700877132 1.8558895447955233 1.132519095917627 1.6707408258489864 1.1325744234540944 C 1.6233706909500278 1.1325906962589378 1.575997301490101 1.132600459941844 1.5286271665911424 1.1325809325760319 C 1.4984411136067495 1.1325679143321572 1.4676985306967145 1.1342993407674884 1.4376556783949428 1.131061052603664 C 1.4112058614025804 1.128210057195111 1.3849838636780247 1.121424297575439 1.3598553984389414 1.1127997110084697 C 1.2488358146757488 1.074705074870214 1.1684514133106252 0.9747998168150216 1.1366120433541491 0.8639657430270431 C 1.122802941164092 0.8158926229588523 1.1197534175364503 0.7654501825054716 1.1218884095318964 0.7157009635384171 Z M 1.873805902928039 0.7791128294519387 C 1.8759213675576731 0.7601973211020421 1.8683772952323012 0.738531708733621 1.8603255113958175 0.7217511923791704 C 1.8519677988282788 0.7043262729529234 1.842415662385239 0.6873667557451961 1.8290133803162654 0.6732484702631156 C 1.8140358907384566 0.6574736132479833 1.795618330216766 0.6464731971738864 1.77643269330647 0.6366639504143221 C 1.72611067160893 0.6109333913960351 1.6704348971179317 0.6117893409307946 1.6154197985035728 0.6118349047843561 C 1.5521348604678293 0.6118869777598548 1.488849922432086 0.6118772140769486 1.4255649843963423 0.6118576867111367 C 1.391574349639577 0.611844668467262 1.3575804603218427 0.6118381593453246 1.3235898255650773 0.6118479230282308 C 1.313464886391552 0.6118479230282308 1.3033366926570582 0.6119065051256667 1.2932117534835328 0.6118869777598548 C 1.2893778806624423 0.6118772140769486 1.2835912712601512 0.6109106094692545 1.2800698362920526 0.6122059247347842 C 1.2761838904954634 0.6272192144832482 1.270527463531919 0.6416759743060703 1.2670971562709432 0.6568617557858736 C 1.2631233373282 0.6744624215044286 1.2617954764529835 0.6921704877349497 1.2591234818977073 0.7099371360629065 C 1.258980281215086 0.7113821611329951 1.2582870597287599 0.7126026214962455 1.2585148789965666 0.7140671739321458 C 1.2571121632190707 0.7171622614133488 1.257854203119927 0.7217153922085151 1.2577435480469923 0.7250578263233367 C 1.2574831831694988 0.7330412643794788 1.2575840745595275 0.7409010291188112 1.2576849659495561 0.7488812126139843 C 1.2580950406316083 0.781254330569322 1.2606986894065426 0.8131457735012968 1.2717609421390441 0.8439046292161752 C 1.2790511587088598 0.8641675258071004 1.2883884941279673 0.8833368899125533 1.301361174149077 0.9006251177781159 C 1.3153395135095045 0.9192444610798638 1.3316123183528432 0.9357711216787585 1.3500819518500324 0.9499544983802124 C 1.3804925695412633 0.973305973330403 1.4194138641655605 0.9859434335717399 1.4571732805240432 0.9900474349532298 C 1.4765021181169606 0.9921466267780206 1.4961759391725569 0.9912093132190443 1.5155991590335658 0.9911507311216079 C 1.5394778728606806 0.991075876219329 1.5633370593219835 0.990994512195112 1.5872092640271611 0.990691838025026 C 1.60638839181552 0.990447745952376 1.6255252103112858 0.9895494871250237 1.6447043380996447 0.9894811413446813 C 1.6590341700446887 0.9894290683691829 1.6736829489646619 0.9904575096352819 1.6879639624951759 0.9889962117603501 C 1.7122625146872488 0.9865129817412568 1.7358938818807452 0.979076309927851 1.7582136610038681 0.9694297912167198 C 1.785434808945805 0.9576645533149859 1.8073087132162204 0.9393316113784809 1.8263902041755191 0.9169272136701725 C 1.8355420296194127 0.9061839079126004 1.8444855631613115 0.8952583467407829 1.8514861238049158 0.8829365789134069 C 1.8605696034684676 0.8669469208743426 1.8665807775775967 0.8484610145723099 1.8701022125456952 0.8304567832936403 C 1.8725952062476945 0.8177281953451809 1.8740076857080963 0.8054650096152409 1.8739686309764725 0.7924728022283196 C 1.8739588672935663 0.7887007660656336 1.875257437120065 0.782556154956789 1.873805902928039 0.7791128294519387 Z M 1.4493753524431152 0.475306072148746 C 1.4625433061223447 0.4740237751270908 1.476339390068527 0.4751498532222499 1.4895756895280987 0.4751531077832185 C 1.5159701789839937 0.47515961690515585 1.5423679230008576 0.47516287146612446 1.5687656670177212 0.47515961690515585 C 1.5976954594682085 0.47515961690515585 1.6266252519186957 0.47515961690515585 1.6555550443691829 0.47515961690515585 C 1.6702949509962788 0.47515961690515585 1.6854286595005838 0.4740856117854956 1.700116493152181 0.4752963084658399 C 1.7039145658026162 0.47581703822082677 1.7073025637709995 0.47837186858123104 1.7111885095675885 0.4790423081407763 C 1.7225501819092075 0.481004808404883 1.7341103824699151 0.4814734651843712 1.7454362546408788 0.48372887593565783 C 1.7834950906084788 0.4913054938707164 1.8212512524059932 0.5041219549653299 1.8550954319191684 0.5232359915343152 C 1.9359549991857175 0.5689007364856917 1.9912239535556324 0.6521166058935564 2.007070410912075 0.7428570202609803 C 2.0121117258525416 0.7717249760530629 2.0123460542422857 0.8023731766950069 2.008063052007519 0.8313452784380866 C 2.0065724630838693 0.8414181446361129 2.0045513807223267 0.8515886476631995 2.002081168947108 0.8614662402031061 C 2.0009681090958233 0.865924988730181 1.9978046758342782 0.8722648734971457 1.9985662431009468 0.8768180042923117 C 1.9960407037892607 0.8792947251894678 1.995546010522023 0.8854393362983124 1.9945924241582034 0.8888110614618521 C 1.9919464660906767 0.8981516514419283 1.9890661796334057 0.9076712422752815 1.9852908889097511 0.9166245395000863 C 1.9779746358521861 0.9339778585850227 1.9695323046994622 0.950455700769387 1.9595375479646837 0.9664258314426397 C 1.9544506691706558 0.9745492156204343 1.9479415472333206 0.9819012688486546 1.9432907796090944 0.9902459631723184 C 1.9436617995595225 0.9913557684626342 1.9432614885603763 0.9904347277085013 1.945998574335026 0.9899074888315769 C 1.948790987646143 0.9893704862717467 1.9525500055649543 0.9895201960763056 1.9554368011441623 0.9894420866130575 C 1.968643809555016 0.9890808303455356 1.981902890941368 0.9893867590765903 1.9951164084741588 0.9893802499546529 C 2.0312745808360573 0.9893704862717467 2.067436007758924 0.9894030318814335 2.1035974346817907 0.9893900136375589 C 2.123261492054481 0.9893835045156214 2.143338878670192 0.9882769537862746 2.1629410993844775 0.9897349971002376 C 2.161554656411825 0.9631549976691287 2.1626904981898907 0.9362495421411527 2.1626839890679532 0.9096337425393881 C 2.162680734506984 0.8994437121464895 2.163181936896159 0.8891527903635623 2.162312969117525 0.8789887964584131 C 2.1604188146337604 0.8730654954954378 2.161281273290457 0.8658826794375882 2.161281273290457 0.8597413228897124 C 2.161281273290457 0.8478068478176077 2.1612129275101153 0.8358723727455035 2.1612129275101153 0.8239378976733989 C 2.161216182071084 0.7841736717582168 2.1607865800232195 0.7443508637455989 2.161489565192452 0.704596401513323 C 2.161457019582765 0.7046354562449471 2.1614602741437343 0.702292172347506 2.1614472558998594 0.7017942245193001 C 2.1613886738024233 0.699737341987102 2.1612910369733633 0.6976902231378102 2.1612910369733633 0.6956333406056121 C 2.1612877824123946 0.6895831117648588 2.1612389639978646 0.6835328829241054 2.1612259457539897 0.6774826540833523 C 2.161190145583334 0.6597648241699252 2.1612194366320523 0.6420437396955296 2.161255236802708 0.6243259097821028 C 2.1613073097782065 0.6008019431005727 2.162231605093308 0.5772877401019484 2.1624366424343338 0.5537995735910737 C 2.1625212610195197 0.5444004015135612 2.1626188978485796 0.5350044839970175 2.1624984790927386 0.5256020573585367 C 2.162413860507553 0.5188683707143631 2.1618475668990054 0.5119589377778817 2.1634227744078407 0.5053489244505175 C 2.1672924473995865 0.48908262872911634 2.179623978909868 0.47583331102567006 2.192817969076847 0.46630721107037987 C 2.200147240378287 0.46101854949629484 2.2090647374324366 0.4571423673826115 2.2178520520478395 0.4551082667771942 C 2.257600005158178 0.4459076229187705 2.2968011920257805 0.4800642402849381 2.3002835722622548 0.5191515175186372 C 2.301722088210406 0.5353006490451663 2.299508986751712 0.5519216919121522 2.2996098781417404 0.5681131327312741 C 2.299645678312396 0.5737305049631946 2.297937033803845 0.5823518369691952 2.3003909727742204 0.5875103161045337 C 2.2980249069499994 0.5928933599467101 2.299388567995871 0.6013649821481521 2.29941460448362 0.6071483369894746 C 2.2994731865810563 0.6204660004732627 2.299411349922652 0.6337836639570511 2.2994048408007144 0.6471013274408393 C 2.2993820588739338 0.6818144747326491 2.299460168337182 0.7165308765854272 2.2994243681665263 0.7512472784382058 C 2.299411349922652 0.7628237518037566 2.299453659215245 0.7743937160473704 2.299681478483051 0.7859701894129214 C 2.299801897238892 0.7920855094730481 2.299157494167096 0.7986857591175061 2.3007196834320562 0.8046058055195127 C 2.2981843804374638 0.846687278844386 2.299216076264532 0.8891495358025938 2.299453659215245 0.9313351550784645 C 2.299525259556555 0.9441613798559838 2.3001696626283517 0.9569583135847852 2.3003193724329103 0.9697682655574611 C 2.3003909727742204 0.9756622754717186 2.2992974402887487 0.9841469159170351 2.30110046706539 0.9897154697344257 C 2.3216172194118716 0.9886512282976714 2.34233575453841 0.989399777320465 2.3628785433726405 0.9894062864424022 C 2.375506239931071 0.9894127955643395 2.3890777591704158 0.9880100797868436 2.401591546094943 0.9897642881489557 C 2.401249817193233 0.9832812026993696 2.4019495478014963 0.9768469356643137 2.4019755842892456 0.9703736138976333 C 2.4020439300695875 0.9551943415397675 2.402050439191525 0.9400085600599639 2.4020536937524937 0.9248292877020976 C 2.4020634574354 0.8760108731720821 2.4020374209476505 0.8271924586420667 2.4020471846305567 0.778374044112051 C 2.402050439191525 0.7535742895308031 2.4031407171160284 0.7281691866093831 2.4009699249499272 0.7034573051742892 C 2.399485845148215 0.6786445323491668 2.4002962308294133 0.6535421035978326 2.400292976268444 0.6286544758704307 C 2.400286467146507 0.5914711168034023 2.3999903020983586 0.5542617212486244 2.4004980136094707 0.5170816167425646 C 2.4007909240966505 0.49576424239779127 2.4026102236781357 0.4744078133213937 2.401650128192379 0.45310345722049483 C 2.4013409449003555 0.44621680621079407 2.402060202874431 0.438959135250665 2.4008527607550554 0.4321538482651809 C 2.399612773025993 0.42716460630021325 2.4003743402926614 0.42115994131302137 2.400332031000069 0.41602749866543254 C 2.4002441578539147 0.40518004695686294 2.400305994512319 0.39432934068732484 2.400309249073288 0.38347863441778673 C 2.400319012756194 0.3558213753060486 2.3999968112202956 0.3281445888284984 2.4003287764390997 0.3004873297167604 C 2.4004491951949403 0.29063902822557186 2.401669655558191 0.2808362905879448 2.4016078188997865 0.2709619526090069 C 2.4015264548755697 0.25746528827194193 2.401991857094089 0.2440109332274697 2.402060202874431 0.23051752345137344 C 2.4020829848012117 0.22565520936418393 2.4007225783163086 0.21751555238154596 2.4035442826761435 0.21328787768324664 C 2.406180477060764 0.20933358610631536 2.4112510830499487 0.20635240825901568 2.4150817013100707 0.2036869228256769 C 2.4235435598286066 0.19779291291141965 2.4324480386388814 0.1923610506547132 2.4406462777189555 0.1861057844729339 C 2.466760874931545 0.1661878713446876 2.4933831836552467 0.14699572531245408 2.518150392626808 0.12534638574887658 C 2.550503983216333 0.09707401461406029 2.578864227497304 0.06474646051228405 2.6037681280295493 0.029802239391698848 C 2.616080132174019 0.012530284330979413 2.628323790538147 -0.00510292699726228 2.638142800980617 -0.023963107810691553 C 2.6482905220809236 -0.04345467345204246 2.6565408341364964 -0.06411788104211374 2.663915669291497 -0.08479736143702826 C 2.6708934480083206 -0.10436052741968982 2.6787206671379664 -0.12511811727785244 2.682378793666749 -0.14561208769755296 C 2.681633499204924 -0.14628903637903584 2.6794822344046345 -0.14597985308701242 2.6783952110411 -0.14602216237960508 C 2.6743270098302654 -0.1461751267451325 2.670252299497493 -0.14632483654969122 2.6661840982866587 -0.14650058284199927 C 2.651183826782069 -0.1471580041576701 2.6359882816193596 -0.14768849759556296 2.621046592212206 -0.14912701354371405 C 2.5771816194765025 -0.1533481791200761 2.5327698804980634 -0.15322450580326671 2.4887259069090835 -0.15307805055967674 C 2.474262637964324 -0.1530324867061153 2.4597961144585963 -0.15314639634001873 2.445332845513837 -0.15306503231580199 C 2.438595904308695 -0.15302597758417802 2.4314684157873123 -0.15371919907050424 2.4247868021186374 -0.1528762677796193 C 2.42167869639356 -0.15427247443517772 2.4210310387607947 -0.16101917932322593 2.419927742592417 -0.16414681241411555 C 2.4166341268921254 -0.17349065695516053 2.4117034670245934 -0.18231702630218735 2.406304150377574 -0.19059012028454062 C 2.3910630413613028 -0.21394159523473139 2.3697261396507177 -0.23292870392593876 2.344962185240125 -0.24565729187439814 C 2.2987018556314824 -0.26943836887245304 2.2365560139347727 -0.2668086836097695 2.1924925129799804 -0.2394671169119922 C 2.173974061068261 -0.2279785166925952 2.1574278731035545 -0.21025092309626225 2.1461931286397133 -0.1916706345261383 C 2.132598827473589 -0.1691913819155505 2.1239416952969328 -0.14341525904370225 2.1225519977633116 -0.11712491553880461 C 2.1219564131060453 -0.10589668019690102 2.123290783103199 -0.0952477567074203 2.1239970228334 -0.08414319468232606 C 2.1220540499351053 -0.08547756467947987 2.116387859288655 -0.0825224233199296 2.114093393805744 -0.08190080217491408 C 2.1046226213869215 -0.07932318988772924 2.0952201947484403 -0.07651450377176894 2.085749422329617 -0.07393689148458416 C 2.0457085587320982 -0.0630503850443907 2.005833677743982 -0.05053334355889472 1.966889601192904 -0.036190493369976096 C 1.950795797202842 -0.030260683285063594 1.9348093937247466 -0.02405749007878294 1.9188848269050554 -0.017675296019225573 C 1.9131535450392316 -0.01537757597534617 1.9073799538808152 -0.013099383297278833 1.9017463088440514 -0.010567334863655298 C 1.9003501021884928 -0.009939204596702444 1.8969197949275172 -0.00867968950182807 1.8963144465873447 -0.007595920699261682 C 1.895972717685635 -0.006984063237152172 1.8977106532429033 -0.007693557528321793 1.8984071292901983 -0.007742375942851709 C 1.8944951470058595 -0.008110141332311194 1.8899485253326307 -0.005610638508374399 1.8863782719500022 -0.004211177291847279 C 1.8764388427516914 -0.0003154678123520882 1.8669029791134948 0.004670519591646827 1.8569440225493716 0.008484865046925416 C 1.8375240572493314 0.015921536860331098 1.818979568849863 0.02540207296206015 1.800399280279739 0.03468408084470037 C 1.7821574660503565 0.04379685155696994 1.763896124455162 0.053013768220236845 1.7461164578833304 0.0630052703940468 C 1.7186707452345558 0.07842863482456297 1.6928620767530207 0.09623759244511271 1.6668874256620838 0.11397494972435163 C 1.6027855928232047 0.1577553038748697 1.5426738517319123 0.2068829016969086 1.4894780526990385 0.26358060833206853 C 1.4646262251422921 0.29007273461702365 1.4420948995562055 0.3183027964592473 1.4196254106285238 0.3467997323009018 C 1.3967100468481344 0.3758694708730418 1.3771826810361283 0.407188111074531 1.3589864306603072 0.4393692099327171 C 1.3540590253537443 0.44808492420680923 1.3488484732429074 0.456647674115374 1.344129359838339 0.46547729802336946 C 1.342671316524376 0.468204620115113 1.3394460466044262 0.47213938432623226 1.339006680873656 0.47512707129546927 C 1.3656647897680134 0.4746356325892004 1.3923879898817437 0.4751661260270932 1.419055862459007 0.47515636234418734 C 1.4290538737547542 0.4751531077832185 1.4394294141228667 0.47595698434247946 1.4493753524431152 0.475306072148746 Z" fill="#014633" transform="matrix(1,0,0,1,0,0)" fill-rule="evenodd"></path></g><g clip-path="url(#SvgjsClipPath1000534de2d6-5c15-4c3b-a9e6-a0e659e5a817)"><path d=" M 1.2585148789965666 0.7140671739321458 C 1.2593285192387333 0.714369848102232 1.2603406876999892 0.714164810761206 1.2610436728692214 0.7146725222723183 C 1.2615318570145215 0.7150240148569342 1.2617303852336101 0.7185552135079387 1.262251114988597 0.7194599814572284 C 1.26495565515356 0.724143294691141 1.267822923366956 0.7287257165350254 1.2706478822877596 0.7333406839885961 C 1.2809941316071543 0.7502318554159815 1.2919620020715645 0.7667552614539073 1.3047068628248673 0.7819377883727423 C 1.3360385212702313 0.8192610935614233 1.3810783905156234 0.8485130875478086 1.42601085924905 0.8666019374116638 C 1.4797176243540042 0.8882219859265235 1.5382574124974302 0.8949654362536028 1.5957589956918512 0.8920005312111465 C 1.606983976472786 0.8914212193587236 1.6182349937414702 0.8923129690641387 1.629463229083374 0.8914798014561598 C 1.6430998395420917 0.890467632994904 1.6570130876831461 0.887313963416265 1.670314478362091 0.8842253850569994 C 1.6941183372869264 0.8786991405322018 1.7178310685046394 0.8707840482564018 1.7401964114813238 0.8609324922042447 C 1.747040753198432 0.8579187687472585 1.7537842035255116 0.8545600618275933 1.7603974714138442 0.851067917908213 C 1.7625519907751022 0.8499288215691791 1.766265444840352 0.8463878592352687 1.768683583640072 0.8464692232594853 C 1.7968680816287343 0.8354818254292633 1.820447375846732 0.8182554342221051 1.8448696013556145 0.8008630604055449 C 1.8519873261940907 0.7957924544163606 1.8585355028630501 0.7899244809898527 1.8654188993117824 0.7845446917086449 C 1.8677752014530977 0.7827026102003789 1.8708507615684886 0.779236502768748 1.873805902928039 0.7791128294519387 C 1.875257437120065 0.782556154956789 1.8739588672935663 0.7887007660656336 1.8739686309764725 0.7924728022283196 C 1.8740076857080963 0.8054650096152409 1.8725952062476945 0.8177281953451809 1.8701022125456952 0.8304567832936403 C 1.8665807775775967 0.8484610145723099 1.8605696034684676 0.8669469208743426 1.8514861238049158 0.8829365789134069 C 1.8444855631613115 0.8952583467407829 1.8355420296194127 0.9061839079126004 1.8263902041755191 0.9169272136701725 C 1.8073087132162204 0.9393316113784809 1.785434808945805 0.9576645533149859 1.7582136610038681 0.9694297912167198 C 1.7358938818807452 0.979076309927851 1.7122625146872488 0.9865129817412568 1.6879639624951759 0.9889962117603501 C 1.6736829489646619 0.9904575096352819 1.6590341700446887 0.9894290683691829 1.6447043380996447 0.9894811413446813 C 1.6255252103112858 0.9895494871250237 1.60638839181552 0.990447745952376 1.5872092640271611 0.990691838025026 C 1.5633370593219835 0.990994512195112 1.5394778728606806 0.991075876219329 1.5155991590335658 0.9911507311216079 C 1.4961759391725569 0.9912093132190443 1.4765021181169606 0.9921466267780206 1.4571732805240432 0.9900474349532298 C 1.4194138641655605 0.9859434335717399 1.3804925695412633 0.973305973330403 1.3500819518500324 0.9499544983802124 C 1.3316123183528432 0.9357711216787585 1.3153395135095045 0.9192444610798638 1.301361174149077 0.9006251177781159 C 1.2883884941279673 0.8833368899125533 1.2790511587088598 0.8641675258071004 1.2717609421390441 0.8439046292161752 C 1.2606986894065426 0.8131457735012968 1.2580950406316083 0.781254330569322 1.2576849659495561 0.7488812126139843 C 1.2575840745595275 0.7409010291188112 1.2574831831694988 0.7330412643794788 1.2577435480469923 0.7250578263233367 C 1.257854203119927 0.7217153922085151 1.2571121632190707 0.7171622614133488 1.2585148789965666 0.7140671739321458 Z" fill="#249f67" transform="matrix(1,0,0,1,0,0)" fill-rule="evenodd"></path></g><g clip-path="url(#SvgjsClipPath1000534de2d6-5c15-4c3b-a9e6-a0e659e5a817)"><path d=" M 1.873805902928039 0.7791128294519387 C 1.8708507615684886 0.779236502768748 1.8677752014530977 0.7827026102003789 1.8654188993117824 0.7845446917086449 C 1.8585355028630501 0.7899244809898527 1.8519873261940907 0.7957924544163606 1.8448696013556145 0.8008630604055449 C 1.820447375846732 0.8182554342221051 1.7968680816287343 0.8354818254292633 1.768683583640072 0.8464692232594853 C 1.7658911703289553 0.846599405698232 1.768442746128391 0.844522995800222 1.7693214775899309 0.8431853712420996 C 1.7721789821204212 0.8388210049831164 1.7753912337964963 0.8348309132355296 1.7779037548643077 0.8301931638551783 C 1.783993038436685 0.8189486557084311 1.7876706923312795 0.8062819044183764 1.7864567410899665 0.7933938429824525 C 1.7831273252190196 0.7580004924481911 1.7541877690856262 0.7269584899290387 1.7213883036433932 0.7154633805877044 C 1.7041651669972038 0.7094294245517945 1.6854579505493017 0.7111771237919691 1.6674862648803188 0.7111901420358437 C 1.6389177286973537 0.7112161785235931 1.61034593795342 0.7112389604503737 1.5817774017704547 0.7113951793768698 C 1.5551843840954709 0.7115383800594912 1.5286499485179232 0.7123682931065014 1.5020634399648767 0.7123324929358461 C 1.4614107189052485 0.7122804199603474 1.4206929066262468 0.7112519786942484 1.3800043853959632 0.7112552332552171 C 1.3569197844452032 0.7112584878161856 1.3338319289334746 0.7112617423771546 1.3107473279827144 0.7112747606210288 C 1.2934883911658697 0.7112845243039352 1.2763108183732415 0.7117271445956737 1.2591234818977073 0.7099371360629065 C 1.2617954764529835 0.6921704877349497 1.2631233373282 0.6744624215044286 1.2670971562709432 0.6568617557858736 C 1.270527463531919 0.6416759743060703 1.2761838904954634 0.6272192144832482 1.2800698362920526 0.6122059247347842 C 1.2835912712601512 0.6109106094692545 1.2893778806624423 0.6118772140769486 1.2932117534835328 0.6118869777598548 C 1.3033366926570582 0.6119065051256667 1.313464886391552 0.6118479230282308 1.3235898255650773 0.6118479230282308 C 1.3575804603218427 0.6118381593453246 1.391574349639577 0.611844668467262 1.4255649843963423 0.6118576867111367 C 1.488849922432086 0.6118772140769486 1.5521348604678293 0.6118869777598548 1.6154197985035728 0.6118349047843561 C 1.6704348971179317 0.6117893409307946 1.72611067160893 0.6109333913960351 1.77643269330647 0.6366639504143221 C 1.795618330216766 0.6464731971738864 1.8140358907384566 0.6574736132479833 1.8290133803162654 0.6732484702631156 C 1.842415662385239 0.6873667557451961 1.8519677988282788 0.7043262729529234 1.8603255113958175 0.7217511923791704 C 1.8683772952323012 0.738531708733621 1.8759213675576731 0.7601973211020421 1.873805902928039 0.7791128294519387 Z" fill="#ffffff" transform="matrix(1,0,0,1,0,0)" fill-rule="evenodd"></path></g><g clip-path="url(#SvgjsClipPath1000534de2d6-5c15-4c3b-a9e6-a0e659e5a817)"><path d=" M 1.2591234818977073 0.7099371360629065 C 1.2763108183732415 0.7117271445956737 1.2934883911658697 0.7112845243039352 1.3107473279827144 0.7112747606210288 C 1.3338319289334746 0.7112617423771546 1.3569197844452032 0.7112584878161856 1.3800043853959632 0.7112552332552171 C 1.4206929066262468 0.7112519786942484 1.4614107189052485 0.7122804199603474 1.5020634399648767 0.7123324929358461 C 1.5286499485179232 0.7123682931065014 1.5551843840954709 0.7115383800594912 1.5817774017704547 0.7113951793768698 C 1.61034593795342 0.7112389604503737 1.6389177286973537 0.7112161785235931 1.6674862648803188 0.7111901420358437 C 1.6854579505493017 0.7111771237919691 1.7041651669972038 0.7094294245517945 1.7213883036433932 0.7154633805877044 C 1.7541877690856262 0.7269584899290387 1.7831273252190196 0.7580004924481911 1.7864567410899665 0.7933938429824525 C 1.7876706923312795 0.8062819044183764 1.783993038436685 0.8189486557084311 1.7779037548643077 0.8301931638551783 C 1.7753912337964963 0.8348309132355296 1.7721789821204212 0.8388210049831164 1.7693214775899309 0.8431853712420996 C 1.768442746128391 0.844522995800222 1.7658911703289553 0.846599405698232 1.768683583640072 0.8464692232594853 C 1.766265444840352 0.8463878592352687 1.7625519907751022 0.8499288215691791 1.7603974714138442 0.851067917908213 C 1.7537842035255116 0.8545600618275933 1.747040753198432 0.8579187687472585 1.7401964114813238 0.8609324922042447 C 1.7178310685046394 0.8707840482564018 1.6941183372869264 0.8786991405322018 1.670314478362091 0.8842253850569994 C 1.6570130876831461 0.887313963416265 1.6430998395420917 0.890467632994904 1.629463229083374 0.8914798014561598 C 1.6182349937414702 0.8923129690641387 1.606983976472786 0.8914212193587236 1.5957589956918512 0.8920005312111465 C 1.5382574124974302 0.8949654362536028 1.4797176243540042 0.8882219859265235 1.42601085924905 0.8666019374116638 C 1.3810783905156234 0.8485130875478086 1.3360385212702313 0.8192610935614233 1.3047068628248673 0.7819377883727423 C 1.2919620020715645 0.7667552614539073 1.2809941316071543 0.7502318554159815 1.2706478822877596 0.7333406839885961 C 1.267822923366956 0.7287257165350254 1.26495565515356 0.724143294691141 1.262251114988597 0.7194599814572284 C 1.2617303852336101 0.7185552135079387 1.2615318570145215 0.7150240148569342 1.2610436728692214 0.7146725222723183 C 1.2603406876999892 0.714164810761206 1.2593285192387333 0.714369848102232 1.2585148789965666 0.7140671739321458 C 1.2582870597287599 0.7126026214962455 1.258980281215086 0.7113821611329951 1.2591234818977073 0.7099371360629065 Z" fill="#28c575" transform="matrix(1,0,0,1,0,0)" fill-rule="evenodd"></path></g><g clip-path="url(#SvgjsClipPath1000534de2d6-5c15-4c3b-a9e6-a0e659e5a817)"><path d=" M 1.8984071292901983 -0.007742375942851709 C 1.9071716619788204 -0.007361592309517606 1.9157213936435102 -0.006424278750541357 1.923450975944096 -0.0019167118089365998 C 1.9291985306147632 0.0014354859887911742 1.9340933903116395 0.0056110877115918 1.9381876280102235 0.010863949115021532 C 1.9558761668749325 0.03354172994469801 1.9449733876298956 0.06554057338863895 1.9222012245321278 0.07999733321146085 C 1.9103839136548952 0.0874990962442399 1.8971411050733864 0.09206524528328058 1.884324643978773 0.09746781649126912 C 1.874059758683595 0.10179638257959706 1.863993401607506 0.10676609717875274 1.8539530810191662 0.11159261109528684 C 1.821592981307703 0.12714615796454987 1.7904273054717412 0.14604864807057183 1.7595317581961787 0.16428720773898564 C 1.700175075249617 0.19932581112766223 1.6450428124403862 0.2416285945984049 1.595182938400397 0.2891647121067654 C 1.574340729957049 0.30903380682048176 1.5551843840954709 0.3305822549940305 1.5358327645757728 0.35187033829008607 C 1.510512280239538 0.3797261256209128 1.4899597277224015 0.41129862157795827 1.4685089163779126 0.4420704955367114 C 1.463080308682175 0.44985540537376467 1.4582895949362962 0.45793322569799777 1.4533817169955452 0.4660631189977297 C 1.452031074193548 0.4682957478222358 1.448340402055079 0.4726275684715323 1.4493753524431152 0.475306072148746 C 1.4394294141228667 0.47595698434247946 1.4290538737547542 0.4751531077832185 1.419055862459007 0.47515636234418734 C 1.3923879898817437 0.4751661260270932 1.3656647897680134 0.4746356325892004 1.339006680873656 0.47512707129546927 C 1.3394460466044262 0.47213938432623226 1.342671316524376 0.468204620115113 1.344129359838339 0.46547729802336946 C 1.3488484732429074 0.456647674115374 1.3540590253537443 0.44808492420680923 1.3589864306603072 0.4393692099327171 C 1.3771826810361283 0.407188111074531 1.3967100468481344 0.3758694708730418 1.4196254106285238 0.3467997323009018 C 1.4420948995562055 0.3183027964592473 1.4646262251422921 0.29007273461702365 1.4894780526990385 0.26358060833206853 C 1.5426738517319123 0.2068829016969086 1.6027855928232047 0.1577553038748697 1.6668874256620838 0.11397494972435163 C 1.6928620767530207 0.09623759244511271 1.7186707452345558 0.07842863482456297 1.7461164578833304 0.0630052703940468 C 1.763896124455162 0.053013768220236845 1.7821574660503565 0.04379685155696994 1.800399280279739 0.03468408084470037 C 1.818979568849863 0.02540207296206015 1.8375240572493314 0.015921536860331098 1.8569440225493716 0.008484865046925416 C 1.8669029791134948 0.004670519591646827 1.8764388427516914 -0.0003154678123520882 1.8863782719500022 -0.004211177291847279 C 1.8899485253326307 -0.005610638508374399 1.8944951470058595 -0.008110141332311194 1.8984071292901983 -0.007742375942851709 Z" fill="#ffffff" transform="matrix(1,0,0,1,0,0)" fill-rule="evenodd"></path></g><g clip-path="url(#SvgjsClipPath1000534de2d6-5c15-4c3b-a9e6-a0e659e5a817)"><path d=" M 1.8984071292901983 -0.007742375942851709 C 1.8977106532429033 -0.007693557528321793 1.895972717685635 -0.006984063237152172 1.8963144465873447 -0.007595920699261682 C 1.8969197949275172 -0.00867968950182807 1.9003501021884928 -0.009939204596702444 1.9017463088440514 -0.010567334863655298 C 1.9073799538808152 -0.013099383297278833 1.9131535450392316 -0.01537757597534617 1.9188848269050554 -0.017675296019225573 C 1.9348093937247466 -0.02405749007878294 1.950795797202842 -0.030260683285063594 1.966889601192904 -0.036190493369976096 C 2.005833677743982 -0.05053334355889472 2.0457085587320982 -0.0630503850443907 2.085749422329617 -0.07393689148458416 C 2.0952201947484403 -0.07651450377176894 2.1046226213869215 -0.07932318988772924 2.114093393805744 -0.08190080217491408 C 2.116387859288655 -0.0825224233199296 2.1220540499351053 -0.08547756467947987 2.1239970228334 -0.08414319468232606 C 2.125572230342235 -0.06764257057118078 2.1320813522795703 -0.050536598119863385 2.1399183350921223 -0.036063565492198135 C 2.1782310268152782 0.03470035364954377 2.2709697416174643 0.06550802777895215 2.343705924706219 0.029545129075174148 C 2.3614009726928655 0.020793614630426616 2.3779536697795094 0.008289591388805362 2.3910012047028983 -0.006541442945413367 C 2.414752990652235 -0.03354453530244933 2.4277875073317494 -0.06655554720764578 2.42925205976765 -0.10245986381398792 C 2.429730480230044 -0.11417302874022295 2.4285197835496994 -0.12620839520235622 2.426567046968499 -0.13773605015337714 C 2.4258575526773294 -0.14191490643714644 2.42272991958644 -0.14922465037277413 2.4247868021186374 -0.1528762677796193 C 2.4314684157873123 -0.15371919907050424 2.438595904308695 -0.15302597758417802 2.445332845513837 -0.15306503231580199 C 2.4597961144585963 -0.15314639634001873 2.474262637964324 -0.1530324867061153 2.4887259069090835 -0.15307805055967674 C 2.5327698804980634 -0.15322450580326671 2.5771816194765025 -0.1533481791200761 2.621046592212206 -0.14912701354371405 C 2.6359882816193596 -0.14768849759556296 2.651183826782069 -0.1471580041576701 2.6661840982866587 -0.14650058284199927 C 2.670252299497493 -0.14632483654969122 2.6743270098302654 -0.1461751267451325 2.6783952110411 -0.14602216237960508 C 2.6794822344046345 -0.14597985308701242 2.681633499204924 -0.14628903637903584 2.682378793666749 -0.14561208769755296 C 2.6787206671379664 -0.12511811727785244 2.6708934480083206 -0.10436052741968982 2.663915669291497 -0.08479736143702826 C 2.6565408341364964 -0.06411788104211374 2.6482905220809236 -0.04345467345204246 2.638142800980617 -0.023963107810691553 C 2.628323790538147 -0.00510292699726228 2.616080132174019 0.012530284330979413 2.6037681280295493 0.029802239391698848 C 2.578864227497304 0.06474646051228405 2.550503983216333 0.09707401461406029 2.518150392626808 0.12534638574887658 C 2.4933831836552467 0.14699572531245408 2.466760874931545 0.1661878713446876 2.4406462777189555 0.1861057844729339 C 2.4324480386388814 0.1923610506547132 2.4235435598286066 0.19779291291141965 2.4150817013100707 0.2036869228256769 C 2.4112510830499487 0.20635240825901568 2.406180477060764 0.20933358610631536 2.4035442826761435 0.21328787768324664 C 2.4007225783163086 0.21751555238154596 2.4020829848012117 0.22565520936418393 2.402060202874431 0.23051752345137344 C 2.401991857094089 0.2440109332274697 2.4015264548755697 0.25746528827194193 2.4016078188997865 0.2709619526090069 C 2.401669655558191 0.2808362905879448 2.4004491951949403 0.29063902822557186 2.4003287764390997 0.3004873297167604 C 2.3999968112202956 0.3281445888284984 2.400319012756194 0.3558213753060486 2.400309249073288 0.38347863441778673 C 2.400305994512319 0.39432934068732484 2.4002441578539147 0.40518004695686294 2.400332031000069 0.41602749866543254 C 2.4003743402926614 0.42115994131302137 2.399612773025993 0.42716460630021325 2.4008527607550554 0.4321538482651809 C 2.396823614275845 0.43265830521532456 2.394900168743362 0.4388875349093544 2.3933965615758375 0.4421062957073667 C 2.388557029415429 0.4524655632706359 2.3833692592313724 0.462779266980344 2.3775696315852066 0.4726373321544386 C 2.35980298325725 0.5028201305778628 2.343126612853796 0.5337026596095505 2.321467509607313 0.5613208639896646 C 2.3168167419830867 0.5672474195136086 2.3121269196272367 0.5731414294278657 2.3075119521736656 0.579094021439559 C 2.3054160149098437 0.5817953070435531 2.3032647501095544 0.5856649800352991 2.3003909727742204 0.5875103161045337 C 2.297937033803845 0.5823518369691952 2.299645678312396 0.5737305049631946 2.2996098781417404 0.5681131327312741 C 2.299508986751712 0.5519216919121522 2.301722088210406 0.5353006490451663 2.3002835722622548 0.5191515175186372 C 2.2968011920257805 0.4800642402849381 2.257600005158178 0.4459076229187705 2.2178520520478395 0.4551082667771942 C 2.2090647374324366 0.4571423673826115 2.200147240378287 0.46101854949629484 2.192817969076847 0.46630721107037987 C 2.179623978909868 0.47583331102567006 2.1672924473995865 0.48908262872911634 2.1634227744078407 0.5053489244505175 C 2.1618475668990054 0.5119589377778817 2.162413860507553 0.5188683707143631 2.1624984790927386 0.5256020573585367 C 2.1626188978485796 0.5350044839970175 2.1625212610195197 0.5444004015135612 2.1624366424343338 0.5537995735910737 C 2.162231605093308 0.5772877401019484 2.1613073097782065 0.6008019431005727 2.161255236802708 0.6243259097821028 C 2.1612194366320523 0.6420437396955296 2.161190145583334 0.6597648241699252 2.1612259457539897 0.6774826540833523 C 2.1612389639978646 0.6835328829241054 2.1612877824123946 0.6895831117648588 2.1612910369733633 0.6956333406056121 C 2.1612910369733633 0.6976902231378102 2.1613886738024233 0.699737341987102 2.1614472558998594 0.7017942245193001 C 2.1614602741437343 0.702292172347506 2.161457019582765 0.7046354562449471 2.161489565192452 0.704596401513323 C 2.1536070185263387 0.7074669242876879 2.146671549102108 0.7127132765691802 2.1395668425075063 0.7170711337062261 C 2.1299463602841247 0.7229716527424208 2.119727038842508 0.7275638382692111 2.1094686626692676 0.7321788057227816 C 2.1043101835339293 0.7345025622544104 2.098767666204288 0.7379003239056996 2.093300003776926 0.7392509667076965 C 2.091399340171224 0.7357100043737863 2.092203216730485 0.7302521056293305 2.091705268902279 0.7262847958085243 C 2.0904587720512793 0.7163356029273074 2.089026765225065 0.7064807923141816 2.0869503553270556 0.6966650364326799 C 2.080675561779464 0.6670127314471483 2.0715953366768813 0.6379592656798516 2.0589904220452313 0.6103638432265184 C 2.0165021285992744 0.517341981620058 1.9297322786136248 0.4441859601663454 1.8316235382131367 0.4162292814454899 C 1.8004904079868616 0.4073606028058704 1.7660669166212632 0.397658756558272 1.7335571071052418 0.40474393578706147 C 1.7144235431704442 0.40890977382695615 1.695472234649892 0.4254396889868194 1.6915635069265225 0.44508421899369766 C 1.6901412637832145 0.45224099856379807 1.6905969023188279 0.4599022350840418 1.694043482384647 0.46645041175300117 C 1.6952281425772422 0.4687025679433192 1.6967219860618608 0.4707496867926111 1.698590104057876 0.47249087691084835 C 1.699029469788646 0.47289769703193185 1.7015322271735516 0.4748667064179759 1.701548499978395 0.47508476200287664 C 1.70158430014905 0.47556643702623946 1.7005916590536065 0.4752247081245292 1.700116493152181 0.4752963084658399 C 1.6854286595005838 0.4740856117854956 1.6702949509962788 0.47515961690515585 1.6555550443691829 0.47515961690515585 C 1.6266252519186957 0.47515961690515585 1.5976954594682085 0.47515961690515585 1.5687656670177212 0.47515961690515585 C 1.5423679230008576 0.47516287146612446 1.5159701789839937 0.47515961690515585 1.4895756895280987 0.4751531077832185 C 1.476339390068527 0.4751498532222499 1.4625433061223447 0.4740237751270908 1.4493753524431152 0.475306072148746 C 1.448340402055079 0.4726275684715323 1.452031074193548 0.4682957478222358 1.4533817169955452 0.4660631189977297 C 1.4582895949362962 0.45793322569799777 1.463080308682175 0.44985540537376467 1.4685089163779126 0.4420704955367114 C 1.4899597277224015 0.41129862157795827 1.510512280239538 0.3797261256209128 1.5358327645757728 0.35187033829008607 C 1.5551843840954709 0.3305822549940305 1.574340729957049 0.30903380682048176 1.595182938400397 0.2891647121067654 C 1.6450428124403862 0.2416285945984049 1.700175075249617 0.19932581112766223 1.7595317581961787 0.16428720773898564 C 1.7904273054717412 0.14604864807057183 1.821592981307703 0.12714615796454987 1.8539530810191662 0.11159261109528684 C 1.863993401607506 0.10676609717875274 1.874059758683595 0.10179638257959706 1.884324643978773 0.09746781649126912 C 1.8971411050733864 0.09206524528328058 1.9103839136548952 0.0874990962442399 1.9222012245321278 0.07999733321146085 C 1.9449733876298956 0.06554057338863895 1.9558761668749325 0.03354172994469801 1.9381876280102235 0.010863949115021532 C 1.9340933903116395 0.0056110877115918 1.9291985306147632 0.0014354859887911742 1.923450975944096 -0.0019167118089365998 C 1.9157213936435102 -0.006424278750541357 1.9071716619788204 -0.007361592309517606 1.8984071292901983 -0.007742375942851709 Z" fill="#2bc777" transform="matrix(1,0,0,1,0,0)" fill-rule="evenodd"></path></g><g clip-path="url(#SvgjsClipPath1000534de2d6-5c15-4c3b-a9e6-a0e659e5a817)"><path d=" M 2.093300003776926 0.7392509667076965 C 2.092320380925357 0.7414282679957354 2.0930917118749317 0.7440612078193873 2.093238167118521 0.746397982594891 C 2.0935148048008583 0.7507753670977488 2.0939899707022835 0.7551267151128578 2.094181989799435 0.7595073541766846 C 2.094800356383482 0.7735149845858302 2.094299153994307 0.7890717860160619 2.0918387059019947 0.8028808882061189 C 2.089121147493157 0.8029882887180848 2.0874808487649483 0.805269735957121 2.0855899488421525 0.8069946532705148 C 2.081059599973767 0.811124691139754 2.0768547072022483 0.8155801851058602 2.0722983218461133 0.8196906956092875 C 2.054671619639809 0.8356022441851039 2.0370872267260975 0.8515593566144817 2.0169707853787626 0.8643302538555337 C 2.012704055948839 0.8670380485814653 2.0079816879833023 0.8694692056250601 2.0041152695525253 0.8727432939595396 C 2.0015767119969645 0.8748945587598289 2.002666989921468 0.8772410972182385 1.9985662431009468 0.8768180042923117 C 1.9978046758342782 0.8722648734971457 2.0009681090958233 0.865924988730181 2.002081168947108 0.8614662402031061 C 2.0045513807223267 0.8515886476631995 2.0065724630838693 0.8414181446361129 2.008063052007519 0.8313452784380866 C 2.0123460542422857 0.8023731766950069 2.0121117258525416 0.7717249760530629 2.007070410912075 0.7428570202609803 C 1.9912239535556324 0.6521166058935564 1.9359549991857175 0.5689007364856917 1.8550954319191684 0.5232359915343152 C 1.8212512524059932 0.5041219549653299 1.7834950906084788 0.4913054938707164 1.7454362546408788 0.48372887593565783 C 1.7341103824699151 0.4814734651843712 1.7225501819092075 0.481004808404883 1.7111885095675885 0.4790423081407763 C 1.7073025637709995 0.47837186858123104 1.7039145658026162 0.47581703822082677 1.700116493152181 0.4752963084658399 C 1.7005916590536065 0.4752247081245292 1.70158430014905 0.47556643702623946 1.701548499978395 0.47508476200287664 C 1.7015322271735516 0.4748667064179759 1.699029469788646 0.47289769703193185 1.698590104057876 0.47249087691084835 C 1.6967219860618608 0.4707496867926111 1.6952281425772422 0.4687025679433192 1.694043482384647 0.46645041175300117 C 1.6905969023188279 0.4599022350840418 1.6901412637832145 0.45224099856379807 1.6915635069265225 0.44508421899369766 C 1.695472234649892 0.4254396889868194 1.7144235431704442 0.40890977382695615 1.7335571071052418 0.40474393578706147 C 1.7660669166212632 0.397658756558272 1.8004904079868616 0.4073606028058704 1.8316235382131367 0.4162292814454899 C 1.9297322786136248 0.4441859601663454 2.0165021285992744 0.517341981620058 2.0589904220452313 0.6103638432265184 C 2.0715953366768813 0.6379592656798516 2.080675561779464 0.6670127314471483 2.0869503553270556 0.6966650364326799 C 2.089026765225065 0.7064807923141816 2.0904587720512793 0.7163356029273074 2.091705268902279 0.7262847958085243 C 2.092203216730485 0.7302521056293305 2.091399340171224 0.7357100043737863 2.093300003776926 0.7392509667076965 Z" fill="#ffffff" transform="matrix(1,0,0,1,0,0)" fill-rule="evenodd"></path></g><g clip-path="url(#SvgjsClipPath1000534de2d6-5c15-4c3b-a9e6-a0e659e5a817)"><path d=" M 1.9985662431009468 0.8768180042923117 C 2.002666989921468 0.8772410972182385 2.0015767119969645 0.8748945587598289 2.0041152695525253 0.8727432939595396 C 2.0079816879833023 0.8694692056250601 2.012704055948839 0.8670380485814653 2.0169707853787626 0.8643302538555337 C 2.0370872267260975 0.8515593566144817 2.054671619639809 0.8356022441851039 2.0722983218461133 0.8196906956092875 C 2.0768547072022483 0.8155801851058602 2.081059599973767 0.811124691139754 2.0855899488421525 0.8069946532705148 C 2.0874808487649483 0.805269735957121 2.089121147493157 0.8029882887180848 2.0918387059019947 0.8028808882061189 C 2.092763001217096 0.8044202955442985 2.091656450487749 0.8084689693893212 2.0913960856102554 0.810265487044026 C 2.090429481002561 0.8168820094933271 2.0895540041019895 0.8235798959668454 2.0883498165435825 0.8301573636845228 C 2.083321519846991 0.8576876949184831 2.0758620661068043 0.8854523545421873 2.065567889762909 0.9114823331695914 C 2.0904750448561225 0.9046965735499193 2.11500792543794 0.8963844248359418 2.139303223069044 0.8876817288057246 C 2.1450800687884293 0.8856118280296519 2.1507430048739113 0.8830667613521537 2.156357122544863 0.8805965495769348 C 2.1582057131750663 0.879782909334768 2.160522960584758 0.8779147913387526 2.162312969117525 0.8789887964584131 C 2.163181936896159 0.8891527903635623 2.162680734506984 0.8994437121464895 2.1626839890679532 0.9096337425393881 C 2.1626904981898907 0.9362495421411527 2.161554656411825 0.9631549976691287 2.1629410993844775 0.9897349971002376 C 2.143338878670192 0.9882769537862746 2.123261492054481 0.9893835045156214 2.1035974346817907 0.9893900136375589 C 2.067436007758924 0.9894030318814335 2.0312745808360573 0.9893704862717467 1.9951164084741588 0.9893802499546529 C 1.981902890941368 0.9893867590765903 1.968643809555016 0.9890808303455356 1.9554368011441623 0.9894420866130575 C 1.9525500055649543 0.9895201960763056 1.948790987646143 0.9893704862717467 1.945998574335026 0.9899074888315769 C 1.9432614885603763 0.9904347277085013 1.9436617995595225 0.9913557684626342 1.9432907796090944 0.9902459631723184 C 1.9479415472333206 0.9819012688486546 1.9544506691706558 0.9745492156204343 1.9595375479646837 0.9664258314426397 C 1.9695323046994622 0.950455700769387 1.9779746358521861 0.9339778585850227 1.9852908889097511 0.9166245395000863 C 1.9890661796334057 0.9076712422752815 1.9919464660906767 0.8981516514419283 1.9945924241582034 0.8888110614618521 C 1.995546010522023 0.8854393362983124 1.9960407037892607 0.8792947251894678 1.9985662431009468 0.8768180042923117 Z" fill="#dbf0e6" transform="matrix(1,0,0,1,0,0)" fill-rule="evenodd"></path></g><g clip-path="url(#SvgjsClipPath1000534de2d6-5c15-4c3b-a9e6-a0e659e5a817)"><path d=" M 2.0918387059019947 0.8028808882061189 C 2.094299153994307 0.7890717860160619 2.094800356383482 0.7735149845858302 2.094181989799435 0.7595073541766846 C 2.0939899707022835 0.7551267151128578 2.0935148048008583 0.7507753670977488 2.093238167118521 0.746397982594891 C 2.0930917118749317 0.7440612078193873 2.092320380925357 0.7414282679957354 2.093300003776926 0.7392509667076965 C 2.098767666204288 0.7379003239056996 2.1043101835339293 0.7345025622544104 2.1094686626692676 0.7321788057227816 C 2.119727038842508 0.7275638382692111 2.1299463602841247 0.7229716527424208 2.1395668425075063 0.7170711337062261 C 2.146671549102108 0.7127132765691802 2.1536070185263387 0.7074669242876879 2.161489565192452 0.704596401513323 C 2.1607865800232195 0.7443508637455989 2.161216182071084 0.7841736717582168 2.1612129275101153 0.8239378976733989 C 2.1612129275101153 0.8358723727455035 2.161281273290457 0.8478068478176077 2.161281273290457 0.8597413228897124 C 2.161281273290457 0.8658826794375882 2.1604188146337604 0.8730654954954378 2.162312969117525 0.8789887964584131 C 2.160522960584758 0.8779147913387526 2.1582057131750663 0.879782909334768 2.156357122544863 0.8805965495769348 C 2.1507430048739113 0.8830667613521537 2.1450800687884293 0.8856118280296519 2.139303223069044 0.8876817288057246 C 2.11500792543794 0.8963844248359418 2.0904750448561225 0.9046965735499193 2.065567889762909 0.9114823331695914 C 2.0758620661068043 0.8854523545421873 2.083321519846991 0.8576876949184831 2.0883498165435825 0.8301573636845228 C 2.0895540041019895 0.8235798959668454 2.090429481002561 0.8168820094933271 2.0913960856102554 0.810265487044026 C 2.091656450487749 0.8084689693893212 2.092763001217096 0.8044202955442985 2.0918387059019947 0.8028808882061189 Z" fill="#259664" transform="matrix(1,0,0,1,0,0)" fill-rule="evenodd"></path></g><g clip-path="url(#SvgjsClipPath1000534de2d6-5c15-4c3b-a9e6-a0e659e5a817)"><path d=" M 2.4247868021186374 -0.1528762677796193 C 2.42272991958644 -0.14922465037277413 2.4258575526773294 -0.14191490643714644 2.426567046968499 -0.13773605015337714 C 2.4285197835496994 -0.12620839520235622 2.429730480230044 -0.11417302874022295 2.42925205976765 -0.10245986381398792 C 2.4277875073317494 -0.06655554720764578 2.414752990652235 -0.03354453530244933 2.3910012047028983 -0.006541442945413367 C 2.3779536697795094 0.008289591388805362 2.3614009726928655 0.020793614630426616 2.343705924706219 0.029545129075174148 C 2.2709697416174643 0.06550802777895215 2.1782310268152782 0.03470035364954377 2.1399183350921223 -0.036063565492198135 C 2.1320813522795703 -0.050536598119863385 2.125572230342235 -0.06764257057118078 2.1239970228334 -0.08414319468232606 C 2.123290783103199 -0.0952477567074203 2.1219564131060453 -0.10589668019690102 2.1225519977633116 -0.11712491553880461 C 2.1239416952969328 -0.14341525904370225 2.132598827473589 -0.1691913819155505 2.1461931286397133 -0.1916706345261383 C 2.1574278731035545 -0.21025092309626225 2.173974061068261 -0.2279785166925952 2.1924925129799804 -0.2394671169119922 C 2.2365560139347727 -0.2668086836097695 2.2987018556314824 -0.26943836887245304 2.344962185240125 -0.24565729187439814 C 2.3697261396507177 -0.23292870392593876 2.3910630413613028 -0.21394159523473139 2.406304150377574 -0.19059012028454062 C 2.4117034670245934 -0.18231702630218735 2.4166341268921254 -0.17349065695516053 2.419927742592417 -0.16414681241411555 C 2.4210310387607947 -0.16101917932322593 2.42167869639356 -0.15427247443517772 2.4247868021186374 -0.1528762677796193 Z" fill="#ffffff" transform="matrix(1,0,0,1,0,0)" fill-rule="evenodd"></path></g><g clip-path="url(#SvgjsClipPath1000534de2d6-5c15-4c3b-a9e6-a0e659e5a817)"><path d=" M 2.3003909727742204 0.5875103161045337 C 2.3032647501095544 0.5856649800352991 2.3054160149098437 0.5817953070435531 2.3075119521736656 0.579094021439559 C 2.3121269196272367 0.5731414294278657 2.3168167419830867 0.5672474195136086 2.321467509607313 0.5613208639896646 C 2.343126612853796 0.5337026596095505 2.35980298325725 0.5028201305778628 2.3775696315852066 0.4726373321544386 C 2.3833692592313724 0.462779266980344 2.388557029415429 0.4524655632706359 2.3933965615758375 0.4421062957073667 C 2.394900168743362 0.4388875349093544 2.396823614275845 0.43265830521532456 2.4008527607550554 0.4321538482651809 C 2.402060202874431 0.438959135250665 2.4013409449003555 0.44621680621079407 2.401650128192379 0.45310345722049483 C 2.4026102236781357 0.4744078133213937 2.4007909240966505 0.49576424239779127 2.4004980136094707 0.5170816167425646 C 2.3999903020983586 0.5542617212486244 2.400286467146507 0.5914711168034023 2.400292976268444 0.6286544758704307 C 2.4002962308294133 0.6535421035978326 2.399485845148215 0.6786445323491668 2.4009699249499272 0.7034573051742892 C 2.3977479095909464 0.7028096475415242 2.395499007961597 0.7068811033133275 2.393686217502049 0.7092406600156116 C 2.388208791391781 0.7163616394150567 2.3822269083313703 0.7230237257179195 2.3764728445387657 0.7299168858495575 C 2.3624587050076826 0.7467039113259457 2.34560984287289 0.7607538510276841 2.3299130953210057 0.775887559531989 C 2.323342136725265 0.7822209351770162 2.316478267642345 0.7882548912129261 2.30999192763179 0.7946696308821704 C 2.306883821906713 0.7977419364365927 2.304120699644314 0.8019923930616726 2.3007196834320562 0.8046058055195127 C 2.299157494167096 0.7986857591175061 2.299801897238892 0.7920855094730481 2.299681478483051 0.7859701894129214 C 2.299453659215245 0.7743937160473704 2.299411349922652 0.7628237518037566 2.2994243681665263 0.7512472784382058 C 2.299460168337182 0.7165308765854272 2.2993820588739338 0.6818144747326491 2.2994048408007144 0.6471013274408393 C 2.299411349922652 0.6337836639570511 2.2994731865810563 0.6204660004732627 2.29941460448362 0.6071483369894746 C 2.299388567995871 0.6013649821481521 2.2980249069499994 0.5928933599467101 2.3003909727742204 0.5875103161045337 Z" fill="#279c66" transform="matrix(1,0,0,1,0,0)" fill-rule="evenodd"></path></g><g clip-path="url(#SvgjsClipPath1000534de2d6-5c15-4c3b-a9e6-a0e659e5a817)"><path d=" M 2.3007196834320562 0.8046058055195127 C 2.304120699644314 0.8019923930616726 2.306883821906713 0.7977419364365927 2.30999192763179 0.7946696308821704 C 2.316478267642345 0.7882548912129261 2.323342136725265 0.7822209351770162 2.3299130953210057 0.775887559531989 C 2.34560984287289 0.7607538510276841 2.3624587050076826 0.7467039113259457 2.3764728445387657 0.7299168858495575 C 2.3822269083313703 0.7230237257179195 2.388208791391781 0.7163616394150567 2.393686217502049 0.7092406600156116 C 2.395499007961597 0.7068811033133275 2.3977479095909464 0.7028096475415242 2.4009699249499272 0.7034573051742892 C 2.4031407171160284 0.7281691866093831 2.402050439191525 0.7535742895308031 2.4020471846305567 0.778374044112051 C 2.4020374209476505 0.8271924586420667 2.4020634574354 0.8760108731720821 2.4020536937524937 0.9248292877020976 C 2.402050439191525 0.9400085600599639 2.4020439300695875 0.9551943415397675 2.4019755842892456 0.9703736138976333 C 2.4019495478014963 0.9768469356643137 2.401249817193233 0.9832812026993696 2.401591546094943 0.9897642881489557 C 2.3890777591704158 0.9880100797868436 2.375506239931071 0.9894127955643395 2.3628785433726405 0.9894062864424022 C 2.34233575453841 0.989399777320465 2.3216172194118716 0.9886512282976714 2.30110046706539 0.9897154697344257 C 2.2992974402887487 0.9841469159170351 2.3003909727742204 0.9756622754717186 2.3003193724329103 0.9697682655574611 C 2.3001696626283517 0.9569583135847852 2.299525259556555 0.9441613798559838 2.299453659215245 0.9313351550784645 C 2.299216076264532 0.8891495358025938 2.2981843804374638 0.846687278844386 2.3007196834320562 0.8046058055195127 Z" fill="#dcf1e7" transform="matrix(1,0,0,1,0,0)" fill-rule="evenodd"></path></g></g></g><defs><clipPath id="SvgjsClipPath1001"><path d=" M 1.1212710273437498 -0.3921261966891265 h 1.7048126328669986 v 1.525440393378253 h -1.7048126328669986 Z"></path></clipPath><clipPath id="SvgjsClipPath1000534de2d6-5c15-4c3b-a9e6-a0e659e5a817"><path d=" M 1.1212710273437498 -0.3921261966891265 L 2.8260836602107484 -0.3921261966891265 L 2.8260836602107484 1.1333141966891265 L 1.1212710273437498 1.1333141966891265 Z"></path></clipPath></defs></svg>